<svg xmlns="http://www.w3.org/2000/svg" viewBox="0 0 32 32">
  <rect width="32" height="32" fill="white" opacity="0.5" rx="5"/>
  <path d="M8 20.8v-12.8c0 -0 3.1999999999999993 -0 3.1999999999999993 0v9.600000000000001c0 2.2399999999999993 0.9599999999999997 3.1999999999999993 3.1999999999999993 3.1999999999999993h9.600000000000001c0 0 0 3.1999999999999993 0 3.1999999999999993h-12.8c-2.2399999999999993 0 -3.1999999999999993 -0.9599999999999997 -3.1999999999999993 -3.1999999999999993ZM13.439999999999998 15.360000000000003v-7.360000000000002c0 -0 3.1999999999999993 -0 3.1999999999999993 0v4.160000000000003c0 2.2399999999999993 0.9599999999999997 3.1999999999999993 3.1999999999999993 3.1999999999999993h4.160000000000003c0 0 0 3.1999999999999993 0 3.1999999999999993h-7.360000000000002c-2.2399999999999993 0 -3.1999999999999993 -0.9599999999999997 -3.1999999999999993 -3.1999999999999993Z" fill="#4a4a4b"/>
  <path d="m30.88 7.34-2.85-5.7c-.28-.57-.98-.8-1.54-.51-.22.11-.4.29-.51.51l-2.85 5.7A1.149 1.149 0 0 0 24.16 9h5.7c.64 0 1.15-.51 1.15-1.15 0-.18-.04-.35-.12-.51Z" fill="#f24b59"/>
  <path d="M26.33 3.18c0-.32.3-.58.67-.58s.67.26.67.58v2.3c0 .32-.3.58-.67.58s-.67-.26-.67-.58v-2.3ZM27 8a.67.67 0 1 1 0-1.34A.67.67 0 0 1 27 8Z" fill="white"/>
</svg>