<svg id="svg" version="1.1" xmlns="http://www.w3.org/2000/svg" style="display: block;" viewBox="0 0 666 666"><path d="M0 0 C219.78 0 439.56 0 666 0 C666 219.78 666 439.56 666 666 C446.22 666 226.44 666 0 666 C0 446.22 0 226.44 0 0 Z " transform="translate(0,0)" style="fill: #c7c7c7;"/><path d="M0 0 C219.78 0 439.56 0 666 0 C666 219.78 666 439.56 666 666 C446.22 666 226.44 666 0 666 C0 446.22 0 226.44 0 0 Z M220 65 C218.98276855 65.46631836 217.96553711 65.93263672 216.91748047 66.41308594 C172.86450229 86.66737078 133.98459719 114.58233588 99 148 C98.1853125 148.77214844 97.370625 149.54429687 96.53125 150.33984375 C91.62580184 155.09929643 87.33890841 160.30454026 83.09375 165.64599609 C82.07654087 166.9052465 81.02390358 168.13565064 79.96875 169.36328125 C62.04000857 190.52915655 58 212.15841157 58 240 C64.14994244 259.32839054 71.90730905 272.39405876 88 285 C109.05909305 295.52954653 126.04118465 295.73970384 149 290 C150.98 288.68 152.96 287.36 155 286 C155.15855469 287.00417969 155.31710938 288.00835937 155.48046875 289.04296875 C156.85020785 297.22922155 158.70577188 304.66711587 161.9140625 312.328125 C162.82519715 314.56990953 163.44741324 316.65603313 164 319 C163.57227295 319.66281982 163.1445459 320.32563965 162.70385742 321.00854492 C155.78301836 331.79899871 149.3687718 342.87768608 143 354 C142.46117187 354.93875977 141.92234375 355.87751953 141.3671875 356.84472656 C133.21318001 371.13984898 126.31941108 385.81364809 120 401 C119.76430298 401.56356201 119.52860596 402.12712402 119.2857666 402.70776367 C108.38154507 428.79164935 98.59039464 455.40432354 90.5 482.5 C90.2102832 483.46897217 89.92056641 484.43794434 89.62207031 485.4362793 C75.13763456 535.52197771 64.65290788 590.6579874 66 643 C71.21619998 645.9872047 76.42779359 648.73867303 81.95703125 651.10546875 C83.26048668 651.6761978 84.54974884 652.28137683 85.81640625 652.9296875 C97.41681238 658.61575419 109.24964401 661.37651585 122 663 C122.55929451 663.08033541 123.11858902 663.16067081 123.69483185 663.24344063 C128.48341068 663.90085307 133.14700829 664.13864469 137.9765625 664.11352539 C139.10485222 664.11374443 139.10485222 664.11374443 140.25593567 664.1139679 C142.71232103 664.11327795 145.16862808 664.10552909 147.625 664.09765625 C149.33992471 664.0957888 151.05484996 664.09436644 152.76977539 664.09336853 C157.26106261 664.08956908 161.75231698 664.07976103 166.24359131 664.06866455 C170.83556677 664.05839486 175.42754759 664.05385905 180.01953125 664.04882812 C189.01303519 664.03813622 198.00651485 664.02109104 207 664 C207.00988701 663.50125807 207.01977402 663.00251614 207.02996063 662.48866081 C208.24119242 601.62831612 208.24119242 601.62831612 213 582 C213.17450684 581.24041992 213.34901367 580.48083984 213.52880859 579.69824219 C218.29026477 559.41871249 227.06379489 539.42542007 240 523 C240.70046117 522.05821445 241.39967327 521.11549867 242.09765625 520.171875 C260.09568362 496.41365421 291.68929615 479.49760802 320.96484375 475.35546875 C335.05926357 473.8721241 349.27552861 474.46900209 363 478 C364.63775391 478.41765625 364.63775391 478.41765625 366.30859375 478.84375 C386.83805669 484.67341389 404.91635011 494.93073833 420 510 C421.20963255 511.1953154 422.41926809 512.39062777 423.62890625 513.5859375 C440.23369129 530.06219224 450.04924145 549.8138901 457 572 C457.32871094 573.04542969 457.65742188 574.09085938 457.99609375 575.16796875 C458.8128928 578.10082752 459.43879821 581.00692378 460 584 C460.20085205 585.06734375 460.20085205 585.06734375 460.40576172 586.15625 C464.91275008 611.1398705 463.21208834 636.77179964 462 662 C466.24696045 666.24696045 486.63191978 663.40198763 492.73262882 663.49477577 C497.33628024 663.56516865 501.93978903 663.63957879 506.54321289 663.72363281 C510.99757267 663.80480953 515.45198864 663.87482924 519.90664482 663.93757248 C521.59408312 663.96321276 523.28146853 663.99266729 524.96876717 664.02626419 C540.82493519 664.33736854 555.06643292 662.83618013 570.0625 657.5 C571.24369049 657.09114514 572.42533184 656.68359048 573.60742188 656.27734375 C575.76739686 655.53327368 577.92360039 654.78070976 580.07836914 654.02148438 C582.08315628 653.32055437 584.0968977 652.64487626 586.11743164 651.99072266 C588.56619165 651.14909751 590.78327136 650.22489488 593.0859375 649.0546875 C594.13974609 648.52294922 594.13974609 648.52294922 595.21484375 647.98046875 C595.92769531 647.61566406 596.64054688 647.25085938 597.375 646.875 C598.47908203 646.31619141 598.47908203 646.31619141 599.60546875 645.74609375 C601.40553613 644.83437131 603.20361356 643.91894778 605 643 C605.85339742 604.50229432 600.52482588 565.59061559 592.43292236 528.01104736 C591.97927089 525.90370741 591.53044828 523.79536737 591.08154297 521.68701172 C587.23254979 503.70353343 582.92323122 486.01779379 577.15869141 468.5390625 C576.09411496 465.30647331 575.06940578 462.06205522 574.04721069 458.81585693 C567.03020878 436.59189403 558.71078029 415.18352519 549 394 C548.66810669 393.27540588 548.33621338 392.55081177 547.9942627 391.80426025 C540.12537692 374.67945176 531.8075354 358.25647043 521.5390625 342.42919922 C518.79121703 338.09210175 516.2424594 333.64006074 513.6875 329.1875 C513.21272217 328.36137207 512.73794434 327.53524414 512.2487793 326.68408203 C509.20128675 321.37000617 509.11736064 320.27234007 510.72436523 314.31445312 C511.46514774 311.62101389 512.2087273 308.92837949 512.95629883 306.23681641 C513.27697231 305.07939828 513.5959847 303.92151865 513.91333008 302.76318359 C514.37444899 301.08061297 514.84145504 299.39965927 515.30859375 297.71875 C515.58501709 296.71779297 515.86144043 295.71683594 516.14624023 294.68554688 C516.9073391 292.29146981 517.80160115 290.2011541 519 288 C524.72805737 289.85774834 530.32870079 291.93770938 536 294 C556.93832598 294 574.64299581 292.81103083 590.34765625 278.6953125 C595.53932239 273.36863849 599.75276684 267.08704845 604 261 C604.66 260.67 605.32 260.34 606 260 C614.04871034 232.4044217 616.0736126 211.05604825 603.05859375 186.7109375 C602.37614117 185.47188806 601.69020459 184.23474802 601 183 C600.18208984 181.53433594 600.18208984 181.53433594 599.34765625 180.0390625 C591.49429276 166.94372289 580.46707316 156.29176297 569.75 145.5625 C569.23075958 145.04217194 568.71151917 144.52184387 568.17654419 143.98574829 C562.29654987 138.10714555 556.37290226 132.34951025 550 127 C549.4033252 126.49654053 548.80665039 125.99308105 548.19189453 125.47436523 C531.66706529 111.65599639 514.39638979 99.199083 496 88 C494.74388916 87.22994629 494.74388916 87.22994629 493.46240234 86.44433594 C487.67692428 82.90175885 481.85898279 79.4196447 476 76 C475.36739258 75.6292334 474.73478516 75.2584668 474.08300781 74.87646484 C461.65556517 67.67818712 448.27820409 62.39707455 435 57 C434.22479004 56.68256836 433.44958008 56.36513672 432.65087891 56.03808594 C414.13357136 48.52111518 394.68204342 43.34506478 375 40 C374.34322266 39.88817383 373.68644531 39.77634766 373.00976562 39.66113281 C320.97530598 31.04309535 267.35318341 43.03193387 220 65 Z " transform="translate(0,0)" style="fill: #f8f8f8;"/><path d="M0 0 C1.03584229 -0.00022156 2.07168457 -0.00044312 3.13891602 -0.00067139 C19.41869297 0.03640725 34.99932937 1.25681792 50.9375 4.625 C51.93837646 4.83495605 52.93925293 5.04491211 53.97045898 5.26123047 C66.65571154 8.02376573 79.68182299 11.32163698 91.56518555 16.64306641 C93.71465151 17.58659295 95.89286234 18.43956134 98.078125 19.296875 C103.83870864 21.59152926 109.48402941 24.11480928 115.125 26.6875 C116.10726563 27.12707031 117.08953125 27.56664063 118.1015625 28.01953125 C123.83275899 30.63206367 129.3179366 33.47481953 134.76660156 36.62792969 C135.4060672 36.99574554 136.04553284 37.3635614 136.70437622 37.74252319 C138.26232071 38.63899201 139.81881406 39.53798195 141.375 40.4375 C141.37996522 41.29666519 141.37996522 41.29666519 141.38503075 42.17318726 C141.46664694 56.18213484 141.55886135 70.19096798 141.66252708 84.19976807 C141.7124121 90.97462767 141.75885523 97.74947662 141.796875 104.52441406 C141.83006513 110.4371145 141.87003973 116.3497258 141.91779006 122.26232719 C141.94279016 125.38604121 141.96464547 128.50969817 141.97834396 131.63348389 C141.77874577 155.4373689 141.77874577 155.4373689 146.5625 178.625 C146.77535645 179.27879639 146.98821289 179.93259277 147.20751953 180.60620117 C149.49837805 187.3118876 152.70832333 193.39380535 156.375 199.4375 C156.83640381 200.20199463 156.83640381 200.20199463 157.30712891 200.98193359 C160.39463404 206.0543791 163.61385888 210.84874394 167.375 215.4375 C167.375 234.46772571 156.94516074 254.8957806 146.375 270.4375 C146.04306641 270.93169434 145.71113281 271.42588867 145.36914062 271.93505859 C120.57357412 308.34905061 75.89156367 333.24445637 33.375 341.4375 C32.41980469 341.64503906 31.46460938 341.85257812 30.48046875 342.06640625 C3.2342711 347.28221116 -30.72576247 343.18241513 -56.625 333.4375 C-57.23537109 333.22013184 -57.84574219 333.00276367 -58.47460938 332.77880859 C-99.03657251 318.28788964 -132.25802961 288.32046065 -150.76953125 249.61328125 C-155.9491084 238.28415839 -160.625 226.95149708 -160.625 214.4375 C-159.67625 213.591875 -158.7275 212.74625 -157.75 211.875 C-149.84584189 204.05199341 -144.26140819 194.35739964 -140.75 183.9375 C-140.48058594 183.14601562 -140.21117187 182.35453125 -139.93359375 181.5390625 C-139.66933594 180.75273437 -139.40507812 179.96640625 -139.1328125 179.15625 C-138.89191895 178.44404297 -138.65102539 177.73183594 -138.40283203 176.99804688 C-125.07230469 133.1152563 -135.625 85.30036371 -135.625 39.4375 C-109.10704656 25.4806824 -83.02761961 12.43173488 -53.59814453 6.10205078 C-50.71881337 5.45846896 -47.878566 4.72214513 -45.02734375 3.96484375 C-30.04353645 0.2576921 -15.37392288 -0.01544503 0 0 Z " transform="translate(333.625,59.5625)" style="fill: #ebebeb;"/><path d="M0 0 C0.66870117 0.4316748 1.33740234 0.86334961 2.02636719 1.30810547 C18.77971182 12.13731183 34.69072355 24.20062643 49.41796875 37.6640625 C50.83248902 38.94376465 52.25309216 40.21726317 53.70043945 41.4597168 C79.02004482 63.21408533 101.57418677 87.58384046 109 121 C109 160 109 160 97 172 C96.01010178 173.16272057 95.04141175 174.34420413 94.10546875 175.55078125 C93.62529297 176.16630859 93.14511719 176.78183594 92.65039062 177.41601562 C92.16763672 178.04185547 91.68488281 178.66769531 91.1875 179.3125 C90.43436523 180.28026367 90.43436523 180.28026367 89.66601562 181.26757812 C88.44094319 182.84267125 87.2200368 184.42100316 86 186 C75 194 75 194 69.4375 196.375 C68.40496094 196.81585938 67.37242187 197.25671875 66.30859375 197.7109375 C51.13228306 203.62378582 36.09002756 202.48728275 21 197 C19.00340982 196.32318977 17.00535378 195.65038501 15 195 C10.72946123 204.28066805 8.46449102 214.12548779 6 224 C5.81332764 224.74652832 5.62665527 225.49305664 5.43432617 226.26220703 C4.5518663 229.79303862 8.52168437 234.061685 10.29534912 237.1088562 C10.93477018 238.20808727 11.57364059 239.30763883 12.2119751 240.40750122 C15.42398273 245.94124162 18.63613286 251.467365 22.0390625 256.88671875 C44.4079757 292.61409846 59.78110875 332.8091474 72.33721924 372.88531494 C72.97492309 374.91998896 73.61782982 376.95296153 74.26123047 378.98583984 C80.76881931 399.65703321 85.40786844 420.61655187 89.58007812 441.8704834 C89.96990801 443.84739688 90.36610664 445.82287649 90.765625 447.79785156 C97.52706797 481.28360047 101.75812954 515.79993415 101 550 C98.3974826 551.31578916 95.7927114 552.62705402 93.1875 553.9375 C92.44951172 554.31068359 91.71152344 554.68386719 90.95117188 555.06835938 C90.23896484 555.42607422 89.52675781 555.78378906 88.79296875 556.15234375 C88.1383667 556.48226318 87.48376465 556.81218262 86.80932617 557.15209961 C85 558 85 558 82 559 C81.93815521 558.16698364 81.93815521 558.16698364 81.87506104 557.31713867 C78.92635709 517.05445724 78.92635709 517.05445724 74 477 C73.84304657 475.94413696 73.84304657 475.94413696 73.68292236 474.86694336 C70.63038818 454.45364891 66.84204652 434.31754527 61.82177734 414.29541016 C61.0746132 411.29920645 60.35559646 408.29789533 59.64453125 405.29296875 C51.43850411 371.42031229 38.71411883 338.52940188 24 307 C23.5654248 306.06381836 23.13084961 305.12763672 22.68310547 304.16308594 C9.85500435 276.05072618 9.85500435 276.05072618 -8 251 C-8 250.34 -8 249.68 -8 249 C-8.66 249 -9.32 249 -10 249 C-10.33 250.65 -10.66 252.3 -11 254 C-19.17581646 265.34164013 -29.03785046 276.30446033 -40 285 C-41.33804688 286.09441406 -41.33804688 286.09441406 -42.703125 287.2109375 C-56.05773808 297.94678768 -70.70535802 306.88427541 -86.20800781 314.15039062 C-87.88038087 314.94328684 -89.53085447 315.76887484 -91.1796875 316.609375 C-100.74281264 321.33010344 -110.71386452 324.28349506 -121 327 C-121.77182617 327.21462891 -122.54365234 327.42925781 -123.33886719 327.65039062 C-135.90541148 331.04384236 -148.38026046 331.36655267 -161.3125 331.375 C-162.11766052 331.37699402 -162.92282104 331.37898804 -163.75238037 331.38104248 C-174.07797309 331.37814861 -184.12844791 330.73340653 -194.34524536 329.23852539 C-196.52957019 328.92366485 -198.71941061 328.66050796 -200.91015625 328.39453125 C-217.70409381 326.13172771 -234.71733023 321.40668775 -250 314 C-250.61439941 313.70432129 -251.22879883 313.40864258 -251.86181641 313.10400391 C-270.29875644 304.11804394 -286.60646476 291.89781732 -301.6953125 278.078125 C-303.60753082 276.35388746 -305.55522763 274.73451794 -307.5625 273.125 C-315.66045688 266.20839212 -321.55914431 257.04476653 -327 248 C-330.81962939 252.45623428 -333.75601921 257.33800614 -336.75 262.375 C-337.28294678 263.27057617 -337.81589355 264.16615234 -338.36499023 265.08886719 C-361.70105275 304.54539847 -379.38720561 349.01709153 -392 393 C-392.29084473 394.0120752 -392.58168945 395.02415039 -392.88134766 396.06689453 C-402.39469039 429.71322979 -408.73313747 464.26578815 -412.76361084 498.97247314 C-412.99107599 500.9234581 -413.22429079 502.87366238 -413.45947266 504.82373047 C-415.62222667 522.84274225 -416.93360063 540.8884415 -418 559 C-423.03623628 557.40446376 -427.86339474 555.7613295 -432.5625 553.3125 C-433.40941406 552.87550781 -434.25632812 552.43851563 -435.12890625 551.98828125 C-437 551 -437 551 -438 550 C-438.24824553 539.78128485 -437.52979823 529.62518757 -436.8125 519.4375 C-436.7478656 518.51670654 -436.6832312 517.59591309 -436.61663818 516.6472168 C-435.32139421 498.60334318 -433.08780247 480.82017403 -430 463 C-429.89945313 462.41704163 -429.79890625 461.83408325 -429.6953125 461.23345947 C-428.28829944 453.12201759 -426.69928918 445.05488907 -425 437 C-424.87473938 436.40398987 -424.74947876 435.80797974 -424.62042236 435.19390869 C-418.63555737 406.78506855 -410.85411104 379.32257495 -401 352 C-400.62149902 350.93523437 -400.24299805 349.87046875 -399.85302734 348.7734375 C-393.00166448 329.52119483 -385.19115348 310.71797258 -377 292 C-376.40856201 290.64261719 -376.40856201 290.64261719 -375.80517578 289.2578125 C-370.12720642 276.34172326 -363.0713504 264.1934771 -356 252 C-355.51644043 251.16243164 -355.03288086 250.32486328 -354.53466797 249.46191406 C-349.92256547 241.48237396 -345.29332115 233.55266554 -340 226 C-341.04359117 222.84023785 -342.10478882 219.69034723 -343.21875 216.5546875 C-345.96284072 208.7281646 -347.96947896 201.2595492 -349 193 C-350.98 194.32 -352.96 195.64 -355 197 C-377.95881535 202.73970384 -394.94090695 202.52954653 -416 192 C-432.35828391 178.15837516 -440.2508838 167.0154416 -446 147 C-446 118.57747494 -441.25200409 94.32696814 -421.23046875 73.375 C-418.93636915 70.93224596 -416.88340388 68.38360789 -414.8125 65.75 C-407.47711453 56.57539759 -398.86371122 48.20332344 -389.90234375 40.625 C-387.65146391 38.70227718 -385.48930088 36.69363969 -383.3125 34.6875 C-367.43281206 20.4006075 -349.33531473 8.54565084 -331.20019531 -2.64208984 C-329.21969212 -3.86441105 -327.24621554 -5.09730555 -325.2734375 -6.33203125 C-249.18671451 -53.46586448 -160.05608989 -70.74283242 0 0 Z M-222.01367188 -27.77294922 C-224.73400819 -27.06884647 -227.44954053 -26.46697083 -230.203125 -25.91015625 C-257.06490738 -20.2734971 -282.04288502 -6.77712799 -306 6 C-306 47.91 -306 89.82 -306 133 C-312.03512519 153.6918578 -316.83489563 166.46653594 -331 181 C-331 196.88472597 -323.57316298 212.23061277 -316 226 C-315.49484863 226.93779297 -315.49484863 226.93779297 -314.97949219 227.89453125 C-313.97810164 229.74945603 -312.96198231 231.5952402 -311.9375 233.4375 C-311.49966187 234.23401978 -311.49966187 234.23401978 -311.05297852 235.04663086 C-305.75563678 244.30728601 -298.46278156 251.91585251 -290.9375 259.375 C-290.47435394 259.83532623 -290.01120789 260.29565247 -289.5340271 260.76992798 C-276.81620001 273.37186762 -263.97740854 282.85780409 -248 291 C-247.33291016 291.34047363 -246.66582031 291.68094727 -245.97851562 292.03173828 C-232.21486983 298.95879055 -218.21079114 303.49269338 -203 306 C-202.01338379 306.16918945 -201.02676758 306.33837891 -200.01025391 306.51269531 C-175.1743349 310.70524809 -151.79373184 311.54576929 -127 306 C-126.00250732 305.7836792 -126.00250732 305.7836792 -124.98486328 305.56298828 C-94.40730209 298.69490008 -65.7352285 279.9966522 -43 259 C-42.44795898 258.4932373 -41.89591797 257.98647461 -41.32714844 257.46435547 C-21.54745374 239.11286229 -9.76590245 214.82982759 -3 189 C-2.28387105 182.53176438 -2.28387105 182.53176438 -4.43359375 180.15625 C-20.65178735 158.65844951 -28.05466975 136.36156152 -28.20532227 109.39990234 C-28.21522186 108.28653503 -28.22512146 107.17316772 -28.23532104 106.02606201 C-28.26207103 103.00611132 -28.28324004 99.98614548 -28.30332303 96.96614408 C-28.32536986 93.79776555 -28.352666 90.62943209 -28.37937927 87.46109009 C-28.42905586 81.47614945 -28.47408625 75.49118345 -28.51740164 69.50619376 C-28.56698966 62.68623113 -28.62182696 55.86631377 -28.67708123 49.04639506 C-28.79051635 35.03097199 -28.89743731 21.01550711 -29 7 C-30.59188738 6.03626479 -32.18487403 5.07434521 -33.77832031 4.1131897 C-34.66529602 3.57732553 -35.55227173 3.04146137 -36.46612549 2.4893589 C-39.49021523 0.71186165 -42.55994578 -0.83801741 -45.75 -2.2890625 C-46.33362305 -2.5596347 -46.91724609 -2.83020691 -47.51855469 -3.10897827 C-48.73379571 -3.67102318 -49.9502698 -4.23040975 -51.16796875 -4.78710938 C-53.00038712 -5.62517705 -54.82854778 -6.47201602 -56.65625 -7.3203125 C-63.36351386 -10.4196485 -70.11210341 -13.32039122 -77 -16 C-78.01707031 -16.42023438 -79.03414062 -16.84046875 -80.08203125 -17.2734375 C-94.11736747 -22.93576198 -108.78079962 -26.67204004 -123.5625 -29.8125 C-124.52454346 -30.01939453 -125.48658691 -30.22628906 -126.4777832 -30.43945312 C-156.96834118 -36.67025778 -191.97048092 -35.69417306 -222.01367188 -27.77294922 Z " transform="translate(504,93)" style="fill: #353535;"/><path d="M0 0 C0.75581357 24.13779092 1.14695346 48.27776839 1.23217773 72.42675781 C1.24245279 75.24732219 1.25978653 78.06770044 1.28344727 80.88818359 C1.48415602 105.85535549 0.84138901 123.94826374 -16 145 C-31.55853009 157.10107896 -40.66805094 159 -61 159 C-74.10490473 156.08779895 -81.14231144 150.96489963 -90 141 C-98.61414815 123.7717037 -98.81657401 110.26629606 -94 91 C-87.50944449 78.01888898 -80.75659099 68.88340446 -71.23828125 58.4609375 C-69.76015954 56.83577751 -68.29872739 55.19526094 -66.85546875 53.5390625 C-58.6385636 44.15254383 -49.41611138 35.97073148 -39.69921875 28.171875 C-37.91864309 26.73916868 -36.15001579 25.29146744 -34.39453125 23.828125 C-5.79233156 0 -5.79233156 0 0 0 Z " transform="translate(177,113)" style="fill: #bfbfbf;"/><path d="M0 0 C3.49181065 1.69538373 6.63802972 3.71440298 9.8125 5.9375 C10.65748047 6.52748779 10.65748047 6.52748779 11.51953125 7.12939453 C13.35052476 8.41380034 15.17623108 9.70535807 17 11 C17.61407715 11.43554199 18.2281543 11.87108398 18.86083984 12.31982422 C30.97308559 20.95244857 42.34410298 30.08943907 52.7421875 40.73828125 C54.74211591 42.74166975 56.78434497 44.60252375 58.9375 46.4375 C77.2247575 62.22770226 90.07216816 79.28867262 96 103 C96 123.72291798 93.15049113 133.43445976 79 149 C62.67741935 157.16129032 62.67741935 157.16129032 53.6875 157.0625 C52.61886719 157.05347656 51.55023437 157.04445313 50.44921875 157.03515625 C36.38821423 156.83332365 23.67567114 146.70810403 14 138 C0.3605099 119.54657222 -0.30032276 103.14104786 -0.1953125 80.859375 C-0.19157683 78.52239607 -0.18863392 76.18542946 -0.18673706 73.84844971 C-0.18056096 68.35579394 -0.16420354 62.86321933 -0.14403808 57.37059903 C-0.12155735 51.10926638 -0.11065528 44.84792952 -0.10064721 38.58656645 C-0.07983309 25.72433644 -0.04473381 12.86216965 0 0 Z " transform="translate(497,115)" style="fill: #bfbfbf;"/><path d="M0 0 C8.39570981 6.29678236 11.16264719 9.06926517 14 19 C12.28644327 32.70845386 6.17703574 39.53644221 -3.98828125 47.4609375 C-6 49 -6 49 -15 50 C-14.9541698 71.1092995 -14.9541698 71.1092995 -4 85 C4.88154295 89.67689744 4.88154295 89.67689744 15 89 C22.69337525 85.46225016 22.69337525 85.46225016 26 77 C26.33 73.7 26.66 70.4 27 67 C32 62 32 62 38 61 C44 65 44 65 48 71 C45.99595224 87.03238208 36.76633244 96.86869142 25 107 C14.29663845 111.28134462 4.92621773 110.64207258 -6 107 C-17.70615034 97.77448747 -17.70615034 97.77448747 -22 92 C-22 91.34 -22 90.68 -22 90 C-22.66 90 -23.32 90 -24 90 C-24.66 91.98 -25.32 93.96 -26 96 C-35.0992135 103.96181181 -43.96226518 110.2271698 -56.3125 110.0625 C-57.63701172 110.04896484 -57.63701172 110.04896484 -58.98828125 110.03515625 C-71.28453963 109.82027018 -79.44290759 101.70138317 -88 94 C-89.14930516 92.06448608 -90.2945285 90.12674909 -91.4375 88.1875 C-91.76298828 87.64029297 -92.08847656 87.09308594 -92.42382812 86.52929688 C-96.11025823 80.25856525 -96 78.02522979 -96 70 C-92 64 -92 64 -86 60 C-79 61 -79 61 -74 67 C-74 70.63 -74 74.26 -74 78 C-69.77986162 85.03356397 -66.91753318 86.73784766 -59 89 C-51.80304035 89.45957252 -51.80304035 89.45957252 -45 86 C-32.6849235 71.92562686 -36.02263601 74.52062813 -35 51 C-37.31 51 -39.62 51 -42 51 C-55.11770428 42.25486381 -55.11770428 42.25486381 -57.83984375 36.1015625 C-58.38318359 34.87566406 -58.38318359 34.87566406 -58.9375 33.625 C-59.47697266 32.40683594 -59.47697266 32.40683594 -60.02734375 31.1640625 C-60.6569903 29.76316215 -61.31312642 28.37374716 -62 27 C-62 13 -62 13 -58 7 C-41.56784256 -7.08470638 -20.41627975 -6.80542658 0 0 Z " transform="translate(362,211)" style="fill: #313131;"/><path d="M0 0 C14.14285714 9.42857143 14.14285714 9.42857143 17 18 C17 35 17 35 12 47 C1.78742599 56.07784356 -5.67305726 60.1972137 -18.875 60.0625 C-20.02742188 60.05347656 -21.17984375 60.04445312 -22.3671875 60.03515625 C-31.57178196 59.91224624 -36.01924218 54.98075782 -42 49 C-42.81498562 47.3970947 -43.62689927 45.79262722 -44.4375 44.1875 C-44.88996094 43.29417969 -45.34242188 42.40085938 -45.80859375 41.48046875 C-50.37292355 31.97768376 -48.188726 22.566178 -45 13 C-31.56257017 -2.11710856 -20.59807854 -6.17942356 0 0 Z " transform="translate(431,146)" style="fill: #2d2d2d;"/><path d="M0 0 C7.52285056 6.58249424 11.42069691 11.05174227 15 20 C15 33.76585424 13.97501821 40.52914543 5 51 C-4.40783946 56.87989966 -10.8937875 59 -22 59 C-35.14380602 55.05685819 -39.09624427 51.29107961 -47 40 C-49 35 -49 35 -49 21 C-41.25 5.5 -41.25 5.5 -30 -2 C-18.2502455 -5.35707272 -11.81270832 -3.63467948 0 0 Z " transform="translate(275,147)" style="fill: #2c2c2c;"/><path d="M0 0 C10.8416216 5.4208108 13.46447006 7.92894011 19 19 C19 26 19 26 16 34 C7.32921086 41.5869405 3.44286162 44 -8 44 C-16 42 -16 42 -24 35 C-28.27296107 24.31759732 -29.43898315 21.35762735 -25 11 C-17.44144638 2.18168744 -11.58290797 0 0 0 Z " transform="translate(239,223)" style="fill: #b0b0b0;"/><path d="M0 0 C7.3090038 3.6545019 12.10244205 6.20488409 16 14 C16 25 16 25 12 34 C1.47616398 43.20835652 1.32668985 43 -13 43 C-22.63922367 38.18038817 -25.18038817 35.63922367 -30 26 C-30 17 -30 17 -26 9 C-14.42857143 0 -14.42857143 0 0 0 Z " transform="translate(447,223)" style="fill: #b0b0b0;"/><path d="M0 0 C0.556875 0.70125 1.11375 1.4025 1.6875 2.125 C4.08156654 5.1197284 6.53666626 8.06217165 9 11 C9 30.03022571 -1.42983926 50.4582806 -12 66 C-12.33193359 66.49419434 -12.66386719 66.98838867 -13.00585938 67.49755859 C-21.51808344 79.99834413 -34.27415867 95.13707934 -48 102 C-46 98 -46 98 -44.19921875 96.33984375 C-27.62299505 80.48544628 -13.41155861 58.83658818 -7.5 36.5625 C-7.2927832 35.79752197 -7.08556641 35.03254395 -6.87207031 34.24438477 C-5.38600196 28.66821481 -4.02553223 23.06537108 -2.75 17.4375 C-2.58693359 16.724729 -2.42386719 16.01195801 -2.25585938 15.27758789 C-1.14554288 10.21206419 -0.48531382 5.16135766 0 0 Z " transform="translate(492,264)" style="fill: #bfbfbf;"/><path d="M0 0 C7 4 7 4 10 9 C10 15 10 15 6 21 C-1 25 -1 25 -8 25 C-14 21 -14 21 -17 15 C-17 12.69 -17 10.38 -17 8 C-15.35 7.34 -13.7 6.68 -12 6 C-11.67 4.68 -11.34 3.36 -11 2 C-9 0 -9 0 0 0 Z " transform="translate(418,151)" style="fill: #f6f6f6;"/><path d="M0 0 C6 5 6 5 8 9 C8 16 8 16 1 24 C-1 25 -1 25 -9 25 C-15 21 -15 21 -18 15 C-18 9 -18 9 -14 3 C-10 0 -10 0 0 0 Z " transform="translate(265,151)" style="fill: #f6f6f6;"/><path d="M0 0 C6 7.2 6 7.2 6 15 C2 20 2 20 -2 22 C-8 22 -8 22 -14 17 C-15 15 -15 15 -15 6 C-9.52135994 -0.84830007 -8.814069 -1.25915271 0 0 Z " transform="translate(342,530)" style="fill: #535353;"/><path d="M0 0 C-1 11 -1 11 -9 29 C-10 25 -10 25 -9.265625 23.3046875 C-6.22048679 16.01977994 -4.06046998 8.60620302 -2 1 C-1 0 -1 0 0 0 Z " transform="translate(502,281)" style="fill: #1a1a1a;"/><path d="M0 0 C0.33 0.66 0.66 1.32 1 2 C-0.65 5.63 -2.3 9.26 -4 13 C-5 9 -5 9 -2 1 C-1.34 0.67 -0.68 0.34 0 0 Z " transform="translate(497,297)" style="fill: #232323;"/></svg>