<svg xmlns="http://www.w3.org/2000/svg" viewBox="0 0 32 32">
  <defs>
    <linearGradient id="linear-gradient" x1="-16.4" x2="-16.4" y1="-138.09" y2="-138.24" gradientTransform="translate(168 -2735) scale(10 -20)" gradientUnits="userSpaceOnUse">
      <stop offset=".2" stop-color="lime"/>
      <stop offset="1" stop-color="green"/>
    </linearGradient>
  </defs>
  <rect width="32" height="32" fill="white" opacity="0.5" rx="5"/>
  <path d="M8 20.8v-12.8c0 -0 3.1999999999999993 -0 3.1999999999999993 0v9.600000000000001c0 2.2399999999999993 0.9599999999999997 3.1999999999999993 3.1999999999999993 3.1999999999999993h9.600000000000001c0 0 0 3.1999999999999993 0 3.1999999999999993h-12.8c-2.2399999999999993 0 -3.1999999999999993 -0.9599999999999997 -3.1999999999999993 -3.1999999999999993ZM13.439999999999998 15.360000000000003v-7.360000000000002c0 -0 3.1999999999999993 -0 3.1999999999999993 0v4.160000000000003c0 2.2399999999999993 0.9599999999999997 3.1999999999999993 3.1999999999999993 3.1999999999999993h4.160000000000003c0 0 0 3.1999999999999993 0 3.1999999999999993h-7.360000000000002c-2.2399999999999993 0 -3.1999999999999993 -0.9599999999999997 -3.1999999999999993 -3.1999999999999993Z" fill="#4a4a4b"/>
  <path d="M4.75 26h22.5c1.24 0 2.25 1.01 2.25 2.25s-1.01 2.25-2.25 2.25H4.75c-1.24 0-2.25-1.01-2.25-2.25S3.51 26 4.75 26Z" fill="#4a4a4b"/>
  <path d="M4.75 26.75h18v3h-18c-.75 0-1.5-.75-1.5-1.5s.75-1.5 1.5-1.5Z" fill="url(#linear-gradient)"/>
</svg>