<svg xmlns="http://www.w3.org/2000/svg" viewBox="0 0 32 32">
  <rect x="0" y="0" width="32" height="32" fill="#1d1a19" rx="7.2"/>
  <path d="M8 20.8v-12.8c0 -0 3.1999999999999993 -0 3.1999999999999993 0v9.600000000000001c0 2.2399999999999993 0.9599999999999997 3.1999999999999993 3.1999999999999993 3.1999999999999993h9.600000000000001c0 0 0 3.1999999999999993 0 3.1999999999999993h-12.8c-2.2399999999999993 0 -3.1999999999999993 -0.9599999999999997 -3.1999999999999993 -3.1999999999999993ZM13.439999999999998 15.360000000000003v-7.360000000000002c0 -0 3.1999999999999993 -0 3.1999999999999993 0v4.160000000000003c0 2.2399999999999993 0.9599999999999997 3.1999999999999993 3.1999999999999993 3.1999999999999993h4.160000000000003c0 0 0 3.1999999999999993 0 3.1999999999999993h-7.360000000000002c-2.2399999999999993 0 -3.1999999999999993 -0.9599999999999997 -3.1999999999999993 -3.1999999999999993Z" fill="white" transform="translate(0, 0)"/>
</svg>